<svg width="456" height="456" viewBox="0 0 456 456" fill="none" xmlns="http://www.w3.org/2000/svg">
<path d="M197.896 172.176L197.4 211.112H207.32C214.099 210.947 220.133 210.864 225.424 210.864C230.715 210.864 236.584 210.947 243.032 211.112H244.272C246.256 211.112 248.157 211.195 249.976 211.36C251.96 211.36 253.861 211.36 255.68 211.36C257.664 211.525 259.565 211.856 261.384 212.352C263.203 212.683 265.021 213.096 266.84 213.592C269.651 214.584 271.965 216.072 273.784 218.056C275.437 220.205 276.264 222.603 276.264 225.248C276.264 226.075 276.264 227.067 276.264 228.224C276.264 229.216 276.099 230.125 275.768 230.952C275.437 232.771 274.363 234.424 272.544 235.912C271.717 237.069 270.147 237.896 267.832 238.392C265.683 239.053 263.533 239.467 261.384 239.632C259.069 240.128 256.755 240.376 254.44 240.376H242.784L196.904 240.624L196.408 289.232L245.76 289.728H257.416C258.739 289.728 259.979 289.728 261.136 289.728C262.293 289.728 263.368 289.811 264.36 289.976C265.683 290.307 266.84 290.555 267.832 290.72C268.989 290.72 270.064 290.885 271.056 291.216C273.04 291.877 274.693 292.787 276.016 293.944C277.669 295.597 278.744 297.333 279.24 299.152C279.405 299.979 279.488 300.888 279.488 301.88C279.653 302.707 279.653 303.616 279.488 304.608C279.488 307.253 278.661 309.651 277.008 311.8C275.024 314.115 272.709 315.603 270.064 316.264C266.592 317.752 262.789 318.496 258.656 318.496C256.837 318.661 254.936 318.744 252.952 318.744C250.968 318.744 249.067 318.827 247.248 318.992H245.76C232.864 319.323 219.472 319.323 205.584 318.992C202.277 318.992 199.632 318.909 197.648 318.744C195.664 318.744 193.845 318.744 192.192 318.744C190.704 318.744 189.133 318.744 187.48 318.744C185.827 318.744 183.677 318.744 181.032 318.744C177.229 319.075 174.088 318.413 171.608 316.76C169.789 315.603 168.384 314.032 167.392 312.048C166.896 311.552 166.648 311.056 166.648 310.56C166.483 310.229 166.317 309.981 166.152 309.816C165.987 309.651 165.821 309.403 165.656 309.072C165.325 308.245 165.077 307.419 164.912 306.592C164.747 305.6 164.664 304.691 164.664 303.864C164.499 303.037 164.333 302.211 164.168 301.384C164.168 300.557 164.085 299.731 163.92 298.904V294.936C163.92 294.275 163.92 293.613 163.92 292.952C164.085 292.291 164.168 291.629 164.168 290.968V271.624L164.664 235.912V202.928C164.664 196.976 164.664 191.685 164.664 187.056C164.829 182.427 164.995 177.384 165.16 171.928V170.688C165.325 168.869 165.408 167.216 165.408 165.728C165.573 164.075 165.656 162.421 165.656 160.768C165.821 157.461 166.731 154.237 168.384 151.096C169.045 149.773 169.707 148.616 170.368 147.624C171.195 146.632 172.269 145.805 173.592 145.144C176.072 143.656 178.635 142.912 181.28 142.912C182.603 142.912 183.595 142.995 184.256 143.16V142.912C187.232 142.912 189.629 142.912 191.448 142.912C193.267 142.912 195.003 142.912 196.656 142.912C198.475 142.912 200.376 142.912 202.36 142.912C204.344 142.747 207.072 142.664 210.544 142.664C217.157 142.499 223.44 142.416 229.392 142.416C235.344 142.416 241.461 142.499 247.744 142.664H248.736C250.555 142.829 252.456 142.912 254.44 142.912C256.424 142.912 258.325 142.995 260.144 143.16C261.963 143.16 263.781 143.408 265.6 143.904C267.419 144.235 269.237 144.731 271.056 145.392C273.867 146.219 276.181 147.624 278 149.608C279.488 151.923 280.232 154.237 280.232 156.552C280.232 157.544 280.232 158.536 280.232 159.528C280.232 160.355 280.067 161.181 279.736 162.008C279.571 163.661 278.579 165.397 276.76 167.216C276.099 167.547 275.355 167.96 274.528 168.456C273.867 168.952 273.04 169.365 272.048 169.696C271.056 170.027 269.981 170.275 268.824 170.44C267.832 170.44 266.84 170.523 265.848 170.688C264.525 171.019 263.285 171.184 262.128 171.184C261.136 171.184 259.979 171.184 258.656 171.184H247.496L197.896 171.432V172.176Z" fill="white"/>
<path d="M200 230C166.8 225.6 143.5 243.833 136 253.5L147.5 291.5C151.5 288 161.8 280.3 171 277.5C182.5 274 201.5 281 216 286C227.6 290 237.5 285.667 241 283C257.667 270.833 291.7 245.9 294.5 243.5C298 240.5 295 237.5 293.5 236.5C292 235.5 288 235.5 282.5 237.5C277 239.5 239 260.5 227.5 260.5C218.3 260.5 207 254.167 202.5 251H236C243.5 251 247 247.5 248.5 245.5C250 243.5 249 239.5 246.5 237.5C244 235.5 241.5 235.5 200 230Z" fill="#068301"/>
<path d="M210 192.5C248.4 188.5 259 212.5 259.5 225C250.7 208.2 235.5 202.667 229 202C236.833 205.5 252.7 215.4 253.5 227C253.5 227 215 228 210 192.5Z" fill="#068301"/>
<path d="M305.5 171C270.7 177 262.667 206.167 263 220C267 211.5 279.3 194.1 296.5 192.5C287.167 195.5 268.2 207.3 267 230.5C292.5 223 309 202 305.5 171Z" fill="#068301"/>
</svg>
