<?xml version="1.0" standalone="no"?>
<!DOCTYPE svg PUBLIC "-//W3C//DTD SVG 20010904//EN"
 "http://www.w3.org/TR/2001/REC-SVG-20010904/DTD/svg10.dtd">
<svg version="1.0" xmlns="http://www.w3.org/2000/svg"
 width="500.000000pt" height="500.000000pt" viewBox="0 0 500.000000 500.000000"
 preserveAspectRatio="xMidYMid meet">

<g transform="translate(0.000000,500.000000) scale(0.100000,-0.100000)"
fill="#000000" stroke="none">
<path d="M4062 3700 c-125 -33 -287 -113 -407 -201 -67 -49 -174 -165 -234
-254 -90 -136 -156 -325 -167 -484 l-6 -86 73 115 c126 198 310 357 507 437
94 39 145 41 72 4 -306 -158 -517 -424 -560 -703 -6 -43 -9 -82 -6 -87 8 -12
126 24 201 62 157 79 340 235 434 372 112 161 179 347 201 555 16 148 2 292
-29 289 -3 0 -39 -9 -79 -19z"/>
<path d="M2147 3251 c-20 -4 -40 -10 -43 -14 -12 -12 19 -118 56 -196 135
-279 344 -448 638 -516 69 -16 252 -20 252 -6 0 21 -43 106 -84 169 -93 139
-219 247 -395 338 -30 15 -50 29 -44 31 19 7 221 -78 286 -120 125 -80 254
-213 348 -357 16 -24 16 -23 9 30 -32 229 -194 427 -459 559 -125 63 -210 82
-381 86 -80 2 -162 0 -183 -4z"/>
<path d="M1510 2464 c-84 -6 -209 -24 -273 -40 -126 -32 -233 -95 -492 -291
-165 -125 -225 -176 -225 -190 0 -5 34 -117 76 -248 42 -132 99 -312 126 -399
26 -88 50 -162 52 -164 3 -2 24 14 48 35 124 111 225 180 313 211 153 54 272
64 431 37 130 -23 333 -72 459 -110 250 -77 311 -89 450 -90 118 0 136 2 190
25 33 15 87 45 120 69 112 79 370 264 450 323 346 254 503 368 583 424 104 74
142 121 142 175 0 51 -26 79 -84 90 -108 20 -166 -1 -586 -212 -589 -296 -677
-326 -862 -300 -99 14 -218 47 -295 81 -55 24 -176 101 -169 107 2 2 123 -1
268 -8 269 -12 455 -8 547 12 148 31 237 168 164 249 -36 40 -70 48 -440 110
-481 81 -808 115 -993 104z"/>
</g>
</svg>
